<svg xmlns="http://www.w3.org/2000/svg" height="83.62954889491334" width="370.06161137440756">
<defs id="SvgjsDefs1001"/>
<g id="SvgjsG1007" featurekey="odWo6G-0" transform="matrix(1.151922064244339,0,0,1.151922064244339,-10.367298578199051,-10.021721739214053)" fill="#26A3BF">
<polygon points="71,48.7 71,18.2 54.8,9 38.7,9 63,22.8 63,36.7 63,53.3"/>
<polygon points="29,66 54.8,81 54.7,81 55.1,81.3 71.7,71.7 79.7,57.8 55.3,72 29,56.8"/>
<polygon points="61.2,57 61.3,57 46.9,65.2 54.8,69.8 81,54.5 81,35.2 73,21.3 73,49.8"/>
<polygon points="61,23.9 34.8,8.7 18.2,18.3 10.2,32.3 35,18 47,25 46.8,25 61,33.2"/>
<polygon points="35.2,20.3 9,35.6 9,54.8 17,68.7 17,40.2 28.8,33.2 28.8,33.2 43.2,24.9"/>
<polygon points="19,41.3 19,71.8 35.2,81 51.4,81 27,67.2 27,53.3 27,36.7"/>
</g>
<g id="SvgjsG1008" featurekey="VGK2BT-0" transform="matrix(3.247344580635749,0,0,3.247344580635749,102.7402119070746,-3.1993931405370404)" fill="#26A3BF">
<path d="M8.72 17.52 l-4.5 0 l-0.88 2.48 l-3.26 0 l4.9 -12.24 l3 0 l4.9 12.24 l-3.28 0 z M5.2 14.74 l2.54 0 l-1.26 -3.56 z M23.200000000000003 17.22 l0 2.78 l-9.1 0 l0 -12.24 l3 0 l0 9.46 l6.1 0 z M24.720000000000002 7.76 l9.1 0 l0 2.78 l-6.1 0 l0 1.96 l4.9 0 l0 2.78 l-4.9 0 l0 1.94 l6.1 0 l0 2.78 l-9.1 0 l0 -12.24 z M40.28 16.32 l-2.5 3.68 l-3.5 0 l4.26 -6.26 l-4.06 -5.98 l3.5 0 l2.3 3.4 l2.3 -3.4 l3.5 0 l-4.04 5.98 l4.24 6.26 l-3.5 0 z M51.620000000000005 20 l-4.3 0 l0 -12.24 l4.3 0 c3.74 0 6.3 2.44 6.3 6.12 c0 3.78 -2.7 6.12 -6.3 6.12 z M50.32000000000001 10.54 l0 6.68 l1.3 0 c2.12 0 3.3 -1.34 3.3 -3.34 c0 -0.46 -0.06 -0.88 -0.18 -1.3 c-0.52 -1.46 -1.66 -2.04 -3.12 -2.04 l-1.3 0 z M59.78000000000001 7.76 l9.1 0 l0 2.78 l-6.1 0 l0 1.96 l4.9 0 l0 2.78 l-4.9 0 l0 1.94 l6.1 0 l0 2.78 l-9.1 0 l0 -12.24 z M79.04 7.76 l3.28 0 l-4.9 12.24 l-3 0 l-4.9 -12.24 l3.26 0 l3.14 8.82 z"/>
</g>
</svg>